{"title":"The.Lives.of.Others[2006]720p.XviD.AC3.6Chn.Cody'sBRrip","uid":5523869,"size":1501128457,"categoryP":"video","categoryS":"hd___movies","magnet":"?xt=urn:btih:eade0ffdf8260cf7e1a85a464e21c6e2a208df9b&amp;dn=The.Lives.of.Others%5B2006%5D720p.XviD.AC3.6Chn.Cody%5C%27sBRrip&amp;tr=udp%3A%2F%2Ftracker.openbittorrent.com%3A80&amp;tr=udp%3A%2F%2Fopen.demonii.com%3A1337&amp;tr=udp%3A%2F%2Ftracker.coppersurfer.tk%3A6969&amp;tr=udp%3A%2F%2Fexodus.desync.com%3A6969","seeders":2,"leechers":0,"uploader":"CODYBOSS1969","files":5,"time":1272672110,"description":"General\n\nComplete name                    : \n\nThe.Lives.of.Others[2006]720p.XviD.AC3.6Chn.Cody'sBRrip.avi\n\nFormat                           : AVI\nFormat/Info                      : Audio Video Interleave\nFormat profile                   : OpenDML\nFile size                        : 1.40 GiB\nDuration                         : 2h 17mn\nOverall bit rate                 : 1 454 Kbps\nWriting application              : AVI-Mux GUI 1.17.8, Aug 30 2008  12:36:58\n\nVideo\nFormat                           : MPEG-4 Visual\nFormat profile                   : Streaming Video@L1\nFormat settings, BVOP            : Yes\nFormat settings, QPel            : Yes\nFormat settings, GMC             : 3 warppoints\nFormat settings, Matrix          : Default\nCodec ID                         : XVID\nCodec ID/Hint                    : XviD\nDuration                         : 2h 17mn\nBit rate                         : 1 065 Kbps\nWidth                            : 1 280 pixels\nHeight                           : 536 pixels\nDisplay aspect ratio             : 2.35\nFrame rate                       : 24.000 fps\nResolution                       : 24 bits\nColorimetry                      : 4:2:0\nScan type                        : Progressive\nBits/(Pixel*Frame)               : 0.065\nStream size                      : 1.02 GiB (73%)\nWriting library                  : XviD 1.2.0.dev47 (UTC 2006-11-01)\n\nAudio\nFormat                           : AC-3\nFormat/Info                      : Audio Coding 3\nCodec ID                         : 2000\nBit rate mode                    : Constant\nBit rate                         : 384 Kbps\nChannel(s)                       : 6 channels\nChannel positions                : Front: L C R, Rear: L R, LFE\nSampling rate                    : 48.0 KHz\nStream size                      : 378 MiB (26%)\nAlignment                        : Aligned on interleaves\nInterleave, duration             : 64 ms (1.54 video frames)\nInterleave, preload duration     : 192 ms\n\n\nSubtitles included: ENGLISH, ROMANIAN\n\n\nDON'T FORGET TO SEED !!!\n\n\nHIT AND RUN IS NOT AN OPTION BECAUSE THIS IS ... A TORRENT !!!","torrent":{"xt":"urn:btih:eade0ffdf8260cf7e1a85a464e21c6e2a208df9b","amp;dn":"The.Lives.of.Others%5B2006%5D720p.XviD.AC3.6Chn.Cody%5C%27sBRrip","amp;tr":["udp%3A%2F%2Ftracker.openbittorrent.com%3A80","udp%3A%2F%2Fopen.demonii.com%3A1337","udp%3A%2F%2Ftracker.coppersurfer.tk%3A6969","udp%3A%2F%2Fexodus.desync.com%3A6969"],"infoHash":"eade0ffdf8260cf7e1a85a464e21c6e2a208df9b","infoHashBuffer":{"type":"Buffer","data":[234,222,15,253,248,38,12,247,225,168,90,70,78,33,198,226,162,8,223,155]},"announce":[],"urlList":[]}}